<svg xmlns="http://www.w3.org/2000/svg" width="152" height="36" viewBox="0 0 152 36" fill="none"><path d="M24.6091 17.025C25.8577 15.9794 26.6517 14.4089 26.6517 12.6529C26.6517 10.897 25.8577 9.32654 24.6091 8.28094C24.7522 8.21164 24.8899 8.13644 25.0211 8.05494C25.8493 7.53998 26.8268 7.24258 27.8738 7.24258C30.8619 7.24258 33.2842 9.66494 33.2842 12.6529C33.2842 15.641 30.8619 18.0633 27.8738 18.0633C26.8268 18.0633 25.8493 17.7659 25.0211 17.251C24.8899 17.1695 24.7522 17.0943 24.6091 17.025Z" fill="#2F2F2F"></path><path d="M23.1065 13.5047C23.665 11.9749 23.5674 10.2178 22.6894 8.69714C21.8114 7.17644 20.3385 6.21335 18.7344 5.93214C18.8237 5.80061 18.9053 5.66662 18.9781 5.53044C19.4379 4.67039 20.1358 3.92406 21.0425 3.40056C23.6303 1.90652 26.9393 2.79315 28.4333 5.3809C29.9273 7.96866 29.0407 11.2776 26.4529 12.7716C25.5462 13.2951 24.5509 13.5263 23.5762 13.4945C23.4219 13.4894 23.265 13.4932 23.1065 13.5047Z" fill="#2F2F2F"></path><path d="M20.0447 11.2073C19.7635 9.60325 18.8004 8.13034 17.2797 7.25236C15.759 6.37438 14.0019 6.27678 12.4721 6.83529C12.4837 6.67675 12.4874 6.51988 12.4823 6.36556C12.4505 5.39083 12.6817 4.39555 13.2052 3.48881C14.6993 0.901064 18.0082 0.0144342 20.596 1.50847C23.1837 3.00251 24.0704 6.31146 22.5763 8.89924C22.0528 9.80594 21.3065 10.5038 20.4464 10.9636C20.3103 11.0364 20.1763 11.118 20.0447 11.2073Z" fill="#2F2F2F"></path><path d="M16.2442 10.7486C15.1986 9.50004 13.6281 8.70604 11.8721 8.70604C10.1161 8.70604 8.54564 9.50004 7.50005 10.7486C7.43079 10.6055 7.35557 10.4678 7.27404 10.3366C6.7591 9.50844 6.4617 8.53094 6.4617 7.48392C6.4617 4.49583 8.88402 2.07351 11.8721 2.07351C14.8602 2.07351 17.2825 4.49583 17.2825 7.48392C17.2825 8.53094 16.9851 9.50844 16.4702 10.3366C16.3886 10.4678 16.3134 10.6055 16.2442 10.7486Z" fill="#2F2F2F"></path><path d="M12.7231 12.2514C11.1933 11.6929 9.43617 11.7905 7.91546 12.6684C6.39475 13.5464 5.43166 15.0193 5.15046 16.6234C5.01893 16.5341 4.88493 16.4525 4.74875 16.3797C3.8887 15.9199 3.14237 15.222 2.61887 14.3153C1.12482 11.7275 2.01145 8.41864 4.59921 6.92458C7.18697 5.43053 10.4959 6.31716 11.99 8.90494C12.5135 9.81164 12.7447 10.8069 12.7128 11.7816C12.7078 11.9359 12.7115 12.0928 12.7231 12.2514Z" fill="#2F2F2F"></path><path d="M10.4247 15.3134C8.82056 15.5946 7.34767 16.5577 6.46969 18.0784C5.59171 19.5991 5.49411 21.3562 6.05263 22.886C5.89407 22.8744 5.73718 22.8707 5.58284 22.8757C4.60812 22.9076 3.61284 22.6764 2.70611 22.1529C0.118349 20.6588 -0.768282 17.3499 0.72576 14.7621C2.2198 12.1744 5.52875 11.2877 8.11651 12.7818C9.02324 13.3053 9.72111 14.0516 10.1809 14.9116C10.2537 15.0478 10.3354 15.1818 10.4247 15.3134Z" fill="#2F2F2F"></path><path d="M9.96509 19.1142C8.71649 20.1598 7.92246 21.7303 7.92246 23.4862C7.92246 25.2422 8.71649 26.8127 9.96509 27.8583C9.822 27.9275 9.68428 28.0028 9.55314 28.0843C8.72493 28.5992 7.74739 28.8966 6.70038 28.8966C3.7123 28.8966 1.28998 26.4743 1.28998 23.4862C1.28998 20.4981 3.7123 18.0758 6.70038 18.0758C7.74739 18.0758 8.72493 18.3732 9.55314 18.8882C9.68428 18.9697 9.822 19.0449 9.96509 19.1142Z" fill="#2F2F2F"></path><path d="M11.4674 22.6354C10.9088 24.1652 11.0064 25.9223 11.8844 27.443C12.7624 28.9638 14.2353 29.9268 15.8394 30.208C15.7501 30.3396 15.6685 30.4736 15.5957 30.6098C15.1359 31.4698 14.438 32.2161 13.5313 32.7396C10.9435 34.2337 7.63456 33.347 6.14052 30.7593C4.64647 28.1715 5.53311 24.8626 8.12086 23.3685C9.0276 22.845 10.0229 22.6138 10.9976 22.6457C11.1519 22.6507 11.3088 22.647 11.4674 22.6354Z" fill="#2F2F2F"></path><path d="M14.5293 24.9338C14.8105 26.5379 15.7736 28.0108 17.2943 28.8887C18.815 29.7667 20.5722 29.8643 22.102 29.3058C22.0904 29.4644 22.0867 29.6212 22.0917 29.7756C22.1236 30.7503 21.8924 31.7456 21.3689 32.6523C19.8748 35.2401 16.5659 36.1267 13.9781 34.6326C11.3903 33.1386 10.5037 29.8297 11.9978 27.2419C12.5213 26.3352 13.2676 25.6373 14.1276 25.1775C14.2638 25.1047 14.3978 25.023 14.5293 24.9338Z" fill="#2F2F2F"></path><path d="M18.3301 25.3934C19.3757 26.642 20.9462 27.436 22.7022 27.436C24.4582 27.436 26.0287 26.642 27.0743 25.3934C27.1435 25.5365 27.2187 25.6742 27.3003 25.8053C27.8152 26.6335 28.1126 27.6111 28.1126 28.6581C28.1126 31.6462 25.6903 34.0685 22.7022 34.0685C19.7141 34.0685 17.2918 31.6462 17.2918 28.6581C17.2918 27.6111 17.5892 26.6335 18.1041 25.8053C18.1857 25.6742 18.2609 25.5365 18.3301 25.3934Z" fill="#2F2F2F"></path><path d="M21.8514 23.8911C23.3812 24.4496 25.1383 24.352 26.659 23.4741C28.1797 22.5961 29.1428 21.1232 29.424 19.5191C29.5555 19.6083 29.6895 19.69 29.8257 19.7628C30.6858 20.2226 31.4321 20.9205 31.9556 21.8272C33.4497 24.415 32.563 27.7239 29.9753 29.218C27.3875 30.712 24.0786 29.8254 22.5845 27.2376C22.061 26.3309 21.8298 25.3356 21.8616 24.3609C21.8667 24.2066 21.863 24.0497 21.8514 23.8911Z" fill="#2F2F2F"></path><path d="M28.108 18.0584C28.1069 18.0603 28.1058 18.0622 28.1047 18.0641C27.2268 19.5848 25.7539 20.5479 24.1498 20.8291C24.239 20.9607 24.3207 21.0947 24.3935 21.2308C24.8533 22.0909 25.5512 22.8372 26.4579 23.3607C29.0457 24.8548 32.3546 23.9681 33.8487 21.3804C35.1295 19.1618 34.6606 16.4132 32.8701 14.7326C32.0835 16.6203 30.2582 17.9668 28.108 18.0584Z" fill="#2F2F2F"></path><path d="M47.2605 7.84085V23.9998H43.6793V7.84085H47.2605ZM44.247 23.9998L44.3125 20.8335H53.593V23.9998H44.247ZM54.1535 18.5188C54.1535 17.3688 54.3937 16.3643 54.8741 15.5054C55.3545 14.6319 56.0314 13.955 56.9049 13.4746C57.7783 12.9942 58.7973 12.754 59.962 12.754C61.1266 12.754 62.1383 12.9942 62.9972 13.4746C63.8707 13.955 64.5476 14.6319 65.028 15.5054C65.5084 16.3643 65.7486 17.3688 65.7486 18.5188C65.7486 19.6689 65.5084 20.6734 65.028 21.5323C64.5476 22.3912 63.8707 23.0608 62.9972 23.5412C62.1383 24.0216 61.1266 24.2618 59.962 24.2618C58.7973 24.2618 57.7783 24.0216 56.9049 23.5412C56.0314 23.0608 55.3545 22.3912 54.8741 21.5323C54.3937 20.6734 54.1535 19.6689 54.1535 18.5188ZM57.5381 18.497C57.5381 19.0502 57.64 19.5379 57.8438 19.9601C58.0476 20.3677 58.3315 20.6879 58.6954 20.9209C59.0594 21.1392 59.4816 21.2484 59.962 21.2484C60.4424 21.2484 60.8645 21.1392 61.2285 20.9209C61.5924 20.6879 61.869 20.3677 62.0583 19.9601C62.2621 19.5379 62.364 19.0502 62.364 18.497C62.364 17.9438 62.2621 17.4634 62.0583 17.0558C61.869 16.6482 61.5924 16.3352 61.2285 16.1168C60.8645 15.8839 60.4424 15.7674 59.962 15.7674C59.4816 15.7674 59.0594 15.8839 58.6954 16.1168C58.3315 16.3352 58.0476 16.6482 57.8438 17.0558C57.64 17.4634 57.5381 17.9438 57.5381 18.497ZM66.508 18.3442C66.508 17.2232 66.7336 16.2406 67.1849 15.3962C67.6362 14.5519 68.2549 13.8968 69.041 13.4309C69.8271 12.9505 70.7297 12.7103 71.7487 12.7103C72.6076 12.7103 73.3646 12.885 74.0197 13.2344C74.6894 13.5838 75.1406 14.0424 75.3736 14.6101L75.046 14.8285L75.3081 13.0816H78.3433V23.301C78.3433 24.5821 78.0958 25.6885 77.6009 26.6202C77.1059 27.5664 76.3999 28.2943 75.4827 28.8038C74.5802 29.3133 73.5029 29.5681 72.2509 29.5681C71.2028 29.5681 70.2566 29.357 69.4122 28.9348C68.5824 28.5272 67.9055 27.9449 67.3814 27.1879C66.8719 26.4309 66.5662 25.5575 66.4643 24.5675H69.8708C69.8999 25.1935 70.1474 25.6739 70.6132 26.0088C71.0936 26.3436 71.705 26.511 72.4475 26.511C73.2773 26.511 73.9178 26.2781 74.3691 25.8122C74.8204 25.3609 75.046 24.7568 75.046 23.9998V21.6851L75.3517 21.969C75.1188 22.5368 74.6675 22.9953 73.9979 23.3447C73.3282 23.6941 72.5567 23.8688 71.6832 23.8688C70.6787 23.8688 69.7834 23.6359 68.9973 23.17C68.2258 22.7042 67.6143 22.0564 67.163 21.2266C66.7263 20.3968 66.508 19.436 66.508 18.3442ZM69.9144 18.2568C69.9144 18.7809 70.0236 19.2467 70.242 19.6543C70.4604 20.062 70.7515 20.3822 71.1155 20.6151C71.4794 20.8335 71.8797 20.9427 72.3165 20.9427C72.8405 20.9427 73.2991 20.8335 73.6922 20.6151C74.0998 20.3822 74.4128 20.062 74.6311 19.6543C74.864 19.2467 74.9805 18.7809 74.9805 18.2568C74.9805 17.7182 74.864 17.2596 74.6311 16.8811C74.3982 16.4881 74.0779 16.1823 73.6703 15.964C73.2773 15.7456 72.8187 15.6364 72.2946 15.6364C71.8579 15.6364 71.4576 15.7456 71.0936 15.964C70.7297 16.1823 70.4385 16.4881 70.2202 16.8811C70.0163 17.2742 69.9144 17.7327 69.9144 18.2568ZM79.5418 18.5188C79.5418 17.3688 79.782 16.3643 80.2624 15.5054C80.7428 14.6319 81.4197 13.955 82.2932 13.4746C83.1666 12.9942 84.1857 12.754 85.3503 12.754C86.5149 12.754 87.5266 12.9942 88.3856 13.4746C89.259 13.955 89.9359 14.6319 90.4163 15.5054C90.8967 16.3643 91.1369 17.3688 91.1369 18.5188C91.1369 19.6689 90.8967 20.6734 90.4163 21.5323C89.9359 22.3912 89.259 23.0608 88.3856 23.5412C87.5266 24.0216 86.5149 24.2618 85.3503 24.2618C84.1857 24.2618 83.1666 24.0216 82.2932 23.5412C81.4197 23.0608 80.7428 22.3912 80.2624 21.5323C79.782 20.6734 79.5418 19.6689 79.5418 18.5188ZM82.9264 18.497C82.9264 19.0502 83.0283 19.5379 83.2321 19.9601C83.4359 20.3677 83.7198 20.6879 84.0838 20.9209C84.4477 21.1392 84.8699 21.2484 85.3503 21.2484C85.8307 21.2484 86.2529 21.1392 86.6168 20.9209C86.9807 20.6879 87.2573 20.3677 87.4466 19.9601C87.6504 19.5379 87.7523 19.0502 87.7523 18.497C87.7523 17.9438 87.6504 17.4634 87.4466 17.0558C87.2573 16.6482 86.9807 16.3352 86.6168 16.1168C86.2529 15.8839 85.8307 15.7674 85.3503 15.7674C84.8699 15.7674 84.4477 15.8839 84.0838 16.1168C83.7198 16.3352 83.4359 16.6482 83.2321 17.0558C83.0283 17.4634 82.9264 17.9438 82.9264 18.497ZM92.5514 23.9998V13.0816H95.936V23.9998H92.5514ZM94.2546 11.3783C93.716 11.3783 93.2574 11.1963 92.8789 10.8324C92.515 10.4539 92.333 9.99534 92.333 9.45674C92.333 8.91814 92.515 8.46684 92.8789 8.10284C93.2574 7.73894 93.716 7.55697 94.2546 7.55697C94.7787 7.55697 95.2227 7.73894 95.5866 8.10284C95.9651 8.46684 96.1544 8.91814 96.1544 9.45674C96.1544 9.99534 95.9651 10.4539 95.5866 10.8324C95.2227 11.1963 94.7787 11.3783 94.2546 11.3783ZM98.1246 29.2406V13.0816H101.204L101.378 14.4136C101.684 13.9041 102.172 13.4965 102.841 13.1907C103.511 12.885 104.232 12.7322 105.003 12.7322C106.022 12.7322 106.91 12.9578 107.667 13.4091C108.424 13.8604 109.021 14.5082 109.458 15.3526C109.894 16.1823 110.127 17.1868 110.157 18.366C110.186 19.516 109.996 20.5424 109.589 21.4449C109.181 22.3329 108.592 23.0317 107.82 23.5412C107.048 24.0508 106.117 24.3055 105.025 24.3055C104.268 24.3055 103.562 24.1745 102.907 23.9125C102.252 23.6504 101.764 23.3156 101.444 22.908V29.2406H98.1246ZM101.509 18.5407C101.509 19.0793 101.618 19.5597 101.837 19.9819C102.07 20.3895 102.383 20.7098 102.776 20.9427C103.183 21.1611 103.649 21.2702 104.173 21.2702C104.712 21.2702 105.171 21.1538 105.549 20.9209C105.942 20.6879 106.241 20.3677 106.444 19.9601C106.663 19.5524 106.772 19.0793 106.772 18.5407C106.772 18.002 106.663 17.5289 106.444 17.1213C106.241 16.7137 105.942 16.3934 105.549 16.1605C105.171 15.9276 104.712 15.8111 104.173 15.8111C103.649 15.8111 103.183 15.9276 102.776 16.1605C102.383 16.3789 102.07 16.6919 101.837 17.0995C101.618 17.5071 101.509 17.9875 101.509 18.5407ZM110.733 20.5496H113.769C113.769 20.9281 113.892 21.2266 114.14 21.4449C114.402 21.6633 114.78 21.7725 115.275 21.7725C115.566 21.7725 115.807 21.7361 115.996 21.6633C116.2 21.5905 116.353 21.4886 116.454 21.3576C116.571 21.212 116.629 21.0519 116.629 20.8772C116.629 20.6879 116.564 20.5278 116.433 20.3968C116.316 20.2658 116.112 20.1639 115.821 20.0911L113.9 19.5888C112.822 19.2977 112.058 18.8682 111.607 18.3005C111.155 17.7327 110.93 17.0849 110.93 16.357C110.93 15.6291 111.112 14.9959 111.476 14.4573C111.854 13.9041 112.364 13.4819 113.004 13.1907C113.645 12.885 114.365 12.7322 115.166 12.7322C116.374 12.7322 117.364 13.067 118.136 13.7367C118.922 14.3917 119.337 15.287 119.381 16.4225H116.345C116.36 16.044 116.251 15.7456 116.018 15.5272C115.785 15.2943 115.479 15.1779 115.101 15.1779C114.766 15.1779 114.489 15.2652 114.271 15.4399C114.067 15.6 113.965 15.8257 113.965 16.1168C113.965 16.3934 114.067 16.5972 114.271 16.7283C114.475 16.8447 114.751 16.9466 115.101 17.034L117.044 17.5144C117.947 17.7327 118.631 18.104 119.097 18.628C119.563 19.1521 119.795 19.8218 119.795 20.637C119.795 21.7579 119.381 22.6459 118.551 23.301C117.721 23.9561 116.644 24.2837 115.319 24.2837C113.951 24.2837 112.851 23.9416 112.022 23.2574C111.206 22.5586 110.777 21.656 110.733 20.5496ZM125.161 24.2837C123.88 24.2837 122.89 23.8833 122.191 23.0827C121.493 22.282 121.143 21.2338 121.143 19.9382V13.0816H124.506V18.7154C124.506 19.7344 124.688 20.4186 125.052 20.768C125.416 21.1174 125.896 21.2921 126.493 21.2921C127.265 21.2921 127.796 21.0737 128.087 20.637C128.378 20.2003 128.524 19.5743 128.524 18.759V13.0816H131.887V23.9998H128.721L128.502 22.777C128.167 23.2282 127.694 23.5922 127.083 23.8688C126.471 24.1454 125.831 24.2837 125.161 24.2837ZM137.438 23.9998H134.053V13.0816H137.198L137.438 14.9595L137.067 14.5664C137.358 14.0132 137.795 13.5692 138.377 13.2344C138.974 12.885 139.614 12.7103 140.299 12.7103C141.376 12.7103 142.22 12.9505 142.832 13.4309C143.458 13.9113 143.909 14.5446 144.185 15.3307H143.661C143.836 14.5446 144.258 13.9113 144.928 13.4309C145.598 12.9505 146.398 12.7103 147.33 12.7103C148.742 12.7103 149.783 13.0888 150.453 13.8458C151.122 14.6028 151.457 15.6073 151.457 16.8593V23.9998H148.182V17.6891C148.182 17.0048 148.014 16.4953 147.679 16.1605C147.359 15.8257 146.93 15.6583 146.391 15.6583C146.071 15.6583 145.765 15.7311 145.474 15.8766C145.183 16.0076 144.942 16.2478 144.753 16.5972C144.564 16.9321 144.469 17.4125 144.469 18.0384V23.9998H141.15V17.6891C141.15 17.0048 140.99 16.5026 140.67 16.1823C140.349 15.8475 139.92 15.6801 139.381 15.6801C139.061 15.6801 138.748 15.7529 138.442 15.8985C138.151 16.0295 137.911 16.2697 137.722 16.6191C137.533 16.9539 137.438 17.427 137.438 18.0384V23.9998Z" fill="#2F2F2F"></path></svg>