<svg xmlns="http://www.w3.org/2000/svg" width="167" height="40" viewBox="0 0 167 40" fill="none"><path d="M48.5293 28.5003H60.4813V24.9003H52.7773V11.3403H48.5293V28.5003Z" fill="#2F234F"></path><path d="M67.5623 26.1C65.8583 26.1 64.9703 24.612 64.9703 22.38C64.9703 20.148 65.8583 18.636 67.5623 18.636C69.2663 18.636 70.1783 20.148 70.1783 22.38C70.1783 24.612 69.2663 26.1 67.5623 26.1ZM67.5863 28.884C71.5463 28.884 74.1383 26.076 74.1383 22.38C74.1383 18.684 71.5463 15.876 67.5863 15.876C63.6503 15.876 61.0103 18.684 61.0103 22.38C61.0103 26.076 63.6503 28.884 67.5863 28.884Z" fill="#2F234F"></path><path d="M80.9925 32.7481C82.8165 32.7481 84.4245 32.3401 85.5045 31.3801C86.4885 30.4921 87.1365 29.1481 87.1365 27.3001V16.2121H83.3925V17.5321H83.3445C82.6245 16.5001 81.5205 15.8521 79.8885 15.8521C76.8405 15.8521 74.7285 18.3961 74.7285 21.9961C74.7285 25.7641 77.2965 27.8281 80.0565 27.8281C81.5445 27.8281 82.4805 27.2281 83.2005 26.4121H83.2965V27.6361C83.2965 29.1241 82.6005 29.9881 80.9445 29.9881C79.6485 29.9881 79.0005 29.4361 78.7845 28.7881H74.9925C75.3765 31.3561 77.6085 32.7481 80.9925 32.7481ZM80.9685 24.9241C79.5045 24.9241 78.5445 23.7241 78.5445 21.8761C78.5445 20.0041 79.5045 18.8041 80.9685 18.8041C82.6005 18.8041 83.4645 20.1961 83.4645 21.8521C83.4645 23.5801 82.6725 24.9241 80.9685 24.9241Z" fill="#2F234F"></path><path d="M94.8352 26.1C93.1312 26.1 92.2432 24.612 92.2432 22.38C92.2432 20.148 93.1312 18.636 94.8352 18.636C96.5392 18.636 97.4512 20.148 97.4512 22.38C97.4512 24.612 96.5392 26.1 94.8352 26.1ZM94.8592 28.884C98.8192 28.884 101.412 26.076 101.412 22.38C101.412 18.684 98.8192 15.876 94.8592 15.876C90.9232 15.876 88.2832 18.684 88.2832 22.38C88.2832 26.076 90.9232 28.884 94.8592 28.884Z" fill="#2F234F"></path><path d="M102.553 28.5003H106.465V16.2123H102.553V28.5003ZM102.553 14.5083H106.465V11.3403H102.553V14.5083Z" fill="#2F234F"></path><path d="M108.163 32.5561H112.075V27.2281H112.123C112.891 28.2601 114.019 28.8841 115.603 28.8841C118.819 28.8841 120.955 26.3401 120.955 22.3561C120.955 18.6601 118.963 15.8521 115.699 15.8521C114.019 15.8521 112.819 16.5961 111.979 17.7001H111.907V16.2121H108.163V32.5561ZM114.595 25.8601C112.915 25.8601 111.955 24.4921 111.955 22.5001C111.955 20.5081 112.819 18.9961 114.523 18.9961C116.203 18.9961 116.995 20.3881 116.995 22.5001C116.995 24.5881 116.083 25.8601 114.595 25.8601Z" fill="#2F234F"></path><path d="M127.325 28.8841C130.541 28.8841 132.917 27.4921 132.917 24.8041C132.917 21.6601 130.373 21.1081 128.213 20.7481C126.653 20.4601 125.261 20.3401 125.261 19.4761C125.261 18.7081 126.005 18.3481 126.965 18.3481C128.045 18.3481 128.789 18.6841 128.933 19.7881H132.533C132.341 17.3641 130.469 15.8521 126.989 15.8521C124.085 15.8521 121.685 17.1961 121.685 19.7881C121.685 22.6681 123.965 23.2441 126.101 23.6041C127.733 23.8921 129.221 24.0121 129.221 25.1161C129.221 25.9081 128.477 26.3401 127.301 26.3401C126.005 26.3401 125.189 25.7401 125.045 24.5161H121.349C121.469 27.2281 123.725 28.8841 127.325 28.8841Z" fill="#2F234F"></path><path d="M138.23 28.8599C139.934 28.8599 141.014 28.1879 141.902 26.9879H141.974V28.4999H145.718V16.2119H141.806V23.0759C141.806 24.5399 140.99 25.5479 139.646 25.5479C138.398 25.5479 137.798 24.8039 137.798 23.4599V16.2119H133.91V24.2759C133.91 27.0119 135.398 28.8599 138.23 28.8599Z" fill="#2F234F"></path><path d="M147.419 28.5001H151.331V21.6121C151.331 20.1481 152.051 19.1161 153.275 19.1161C154.451 19.1161 155.003 19.8841 155.003 21.2041V28.5001H158.915V21.6121C158.915 20.1481 159.611 19.1161 160.859 19.1161C162.035 19.1161 162.587 19.8841 162.587 21.2041V28.5001H166.499V20.5081C166.499 17.7481 165.107 15.8521 162.323 15.8521C160.739 15.8521 159.419 16.5241 158.459 18.0121H158.411C157.787 16.6921 156.563 15.8521 154.955 15.8521C153.179 15.8521 152.003 16.6921 151.235 17.9641H151.163V16.2121H147.419V28.5001Z" fill="#2F234F"></path><path fill-rule="evenodd" clip-rule="evenodd" d="M8.55273 3.59787C7.12207 4.59823 5.82837 5.78098 4.70532 7.1124C9.29462 6.68633 15.1252 7.38205 21.8944 10.7667C29.123 14.3809 34.9438 14.5031 38.9948 13.7217C38.6272 12.6088 38.1644 11.5392 37.6163 10.5224C32.979 11.0115 27.034 10.3641 20.1056 6.89998C15.706 4.70018 11.8278 3.79401 8.55273 3.59787ZM34.9074 6.66665C31.2453 2.575 25.9234 0 20 0C18.2605 0 16.5727 0.222107 14.9637 0.63948C17.1429 1.23409 19.4579 2.10399 21.8944 3.32227C26.967 5.85853 31.3464 6.67516 34.9074 6.66665ZM39.8609 17.6281C34.9669 18.5945 28.2088 18.396 20.1056 14.3444C12.53 10.5566 6.50043 10.6043 2.4339 11.508C2.224 11.5546 2.01904 11.6036 1.81903 11.6546C1.28662 12.8125 0.861634 14.0301 0.556702 15.2945C0.882386 15.2075 1.21893 15.1248 1.56616 15.0476C6.49957 13.9513 13.4701 13.9989 21.8944 18.2111C29.4701 21.9989 35.4996 21.9512 39.5662 21.0475C39.7055 21.0166 39.8428 20.9846 39.9778 20.9516C39.9926 20.6363 40 20.319 40 20C40 19.1975 39.9528 18.406 39.8609 17.6281ZM39.3248 25.1723C34.4783 26.0196 27.917 25.6944 20.1056 21.7888C12.53 18.001 6.50043 18.0487 2.4339 18.9524C1.53125 19.1529 0.719239 19.3972 0.00293 19.6551C0.000977 19.7698 0 19.8848 0 20C0 31.0457 8.95429 40 20 40C29.2571 40 37.0453 33.7109 39.3248 25.1723Z" fill="#2F2F2F"></path></svg>