<svg xmlns="http://www.w3.org/2000/svg" width="152" height="38" viewBox="0 0 152 38" fill="none"><path d="M0 28.1819L2.98023e-06 9.39404L9.39392 14.6129V23.0152L16.9091 27.2425L24.4242 23.0152V14.6129L33.8182 9.39404V28.1819L16.9091 37.5758L0 28.1819Z" fill="#192657"></path><path fill-rule="evenodd" clip-rule="evenodd" d="M4.69698 12.0034L2.98023e-06 9.39404L16.9091 0L33.8182 9.39404L29.1212 12.0034V25.8333L16.9091 32.8788L4.69697 25.8333L4.69698 12.0034ZM28.6124 12.2861L24.4242 14.6129V14.5606L16.9091 10.3333L9.39392 14.5606L9.39392 14.6129L5.20581 12.2861V25.5443L16.9091 32.2962L28.6124 25.5443V12.2861Z" fill="#2F2F2F"></path><path d="M42.8213 26.6968V10.915H45.7973V23.9913H53.0119V26.6968H42.8213Z" fill="#192657"></path><path d="M59.437 27.0125C58.3248 27.0125 57.3253 26.7871 56.4385 26.3361C55.5517 25.8852 54.8528 25.2314 54.3418 24.3747C53.8307 23.518 53.5752 22.4884 53.5752 21.286V20.9252C53.5752 19.7228 53.8307 18.6932 54.3418 17.8365C54.8528 16.9798 55.5517 16.326 56.4385 15.8751C57.3253 15.4241 58.3248 15.1987 59.437 15.1987C60.5493 15.1987 61.5488 15.4241 62.4356 15.8751C63.3224 16.326 64.0213 16.9798 64.5323 17.8365C65.0433 18.6932 65.2989 19.7228 65.2989 20.9252V21.286C65.2989 22.4884 65.0433 23.518 64.5323 24.3747C64.0213 25.2314 63.3224 25.8852 62.4356 26.3361C61.5488 26.7871 60.5493 27.0125 59.437 27.0125ZM59.437 24.4874C60.3088 24.4874 61.0303 24.2094 61.6014 23.6532C62.1726 23.0821 62.4581 22.2704 62.4581 21.2183V20.9929C62.4581 19.9408 62.1726 19.1366 61.6014 18.5805C61.0453 18.0094 60.3238 17.7238 59.437 17.7238C58.5653 17.7238 57.8438 18.0094 57.2727 18.5805C56.7015 19.1366 56.416 19.9408 56.416 20.9929V21.2183C56.416 22.2704 56.7015 23.0821 57.2727 23.6532C57.8438 24.2094 58.5653 24.4874 59.437 24.4874Z" fill="#192657"></path><path d="M66.3652 21.1507V20.79C66.3652 19.6176 66.5981 18.6181 67.0641 17.7914C67.53 16.9497 68.1463 16.3109 68.9128 15.8751C69.6944 15.4241 70.5436 15.1987 71.4604 15.1987C72.4825 15.1987 73.2566 15.3791 73.7826 15.7398C74.3087 16.1005 74.692 16.4763 74.9324 16.8671H75.3383V15.5143H78.1339V28.6809C78.1339 29.4474 77.9084 30.0561 77.4575 30.5071C77.0066 30.973 76.4054 31.206 75.6539 31.206H68.1688V28.726H74.6619C75.0827 28.726 75.2932 28.5005 75.2932 28.0496V25.1412H74.8873C74.737 25.3817 74.5266 25.6297 74.2561 25.8852C73.9855 26.1257 73.6248 26.3286 73.1739 26.494C72.723 26.6593 72.1518 26.742 71.4604 26.742C70.5436 26.742 69.6944 26.524 68.9128 26.0881C68.1463 25.6372 67.53 24.9984 67.0641 24.1718C66.5981 23.3301 66.3652 22.3231 66.3652 21.1507ZM72.2721 24.262C73.1438 24.262 73.8728 23.9839 74.459 23.4278C75.0452 22.8717 75.3383 22.0901 75.3383 21.0831V20.8576C75.3383 19.8355 75.0452 19.054 74.459 18.5129C73.8878 17.9568 73.1589 17.6787 72.2721 17.6787C71.4003 17.6787 70.6713 17.9568 70.0852 18.5129C69.499 19.054 69.2059 19.8355 69.2059 20.8576V21.0831C69.2059 22.0901 69.499 22.8717 70.0852 23.4278C70.6713 23.9839 71.4003 24.262 72.2721 24.262Z" fill="#192657"></path><path d="M85.5898 27.0125C84.4775 27.0125 83.478 26.7871 82.5912 26.3361C81.7044 25.8852 81.0055 25.2314 80.4945 24.3747C79.9835 23.518 79.728 22.4884 79.728 21.286V20.9252C79.728 19.7228 79.9835 18.6932 80.4945 17.8365C81.0055 16.9798 81.7044 16.326 82.5912 15.8751C83.478 15.4241 84.4775 15.1987 85.5898 15.1987C86.702 15.1987 87.7015 15.4241 88.5883 15.8751C89.4751 16.326 90.174 16.9798 90.685 17.8365C91.1961 18.6932 91.4516 19.7228 91.4516 20.9252V21.286C91.4516 22.4884 91.1961 23.518 90.685 24.3747C90.174 25.2314 89.4751 25.8852 88.5883 26.3361C87.7015 26.7871 86.702 27.0125 85.5898 27.0125ZM85.5898 24.4874C86.4615 24.4874 87.183 24.2094 87.7541 23.6532C88.3253 23.0821 88.6109 22.2704 88.6109 21.2183V20.9929C88.6109 19.9408 88.3253 19.1366 87.7541 18.5805C87.198 18.0094 86.4766 17.7238 85.5898 17.7238C84.718 17.7238 83.9966 18.0094 83.4254 18.5805C82.8543 19.1366 82.5687 19.9408 82.5687 20.9929V21.2183C82.5687 22.2704 82.8543 23.0821 83.4254 23.6532C83.9966 24.2094 84.718 24.4874 85.5898 24.4874Z" fill="#192657"></path><path d="M93.0591 26.6971V15.5145H95.8998V26.6971H93.0591ZM94.4794 14.2069C93.9684 14.2069 93.5325 14.0416 93.1718 13.7109C92.8261 13.3802 92.6533 12.9443 92.6533 12.4033C92.6533 11.8622 92.8261 11.4263 93.1718 11.0956C93.5325 10.765 93.9684 10.5996 94.4794 10.5996C95.0055 10.5996 95.4414 10.765 95.7871 11.0956C96.1328 11.4263 96.3056 11.8622 96.3056 12.4033C96.3056 12.9443 96.1328 13.3802 95.7871 13.7109C95.4414 14.0416 95.0055 14.2069 94.4794 14.2069Z" fill="#192657"></path><path d="M98.0332 31.206V15.5143H100.829V16.8671H101.235C101.49 16.4312 101.888 16.0479 102.43 15.7172C102.971 15.3715 103.745 15.1987 104.752 15.1987C105.654 15.1987 106.488 15.4241 107.254 15.8751C108.021 16.3109 108.637 16.9572 109.103 17.814C109.569 18.6707 109.802 19.7078 109.802 20.9252V21.286C109.802 22.5034 109.569 23.5405 109.103 24.3972C108.637 25.254 108.021 25.9078 107.254 26.3587C106.488 26.7946 105.654 27.0125 104.752 27.0125C104.075 27.0125 103.504 26.9298 103.038 26.7645C102.587 26.6142 102.219 26.4188 101.934 26.1783C101.663 25.9228 101.445 25.6673 101.28 25.4118H100.874V31.206H98.0332ZM103.895 24.5325C104.782 24.5325 105.511 24.2544 106.082 23.6983C106.668 23.1272 106.961 22.3005 106.961 21.2183V20.9929C106.961 19.9107 106.668 19.0915 106.082 18.5354C105.496 17.9643 104.767 17.6787 103.895 17.6787C103.023 17.6787 102.294 17.9643 101.708 18.5354C101.122 19.0915 100.829 19.9107 100.829 20.9929V21.2183C100.829 22.3005 101.122 23.1272 101.708 23.6983C102.294 24.2544 103.023 24.5325 103.895 24.5325Z" fill="#192657"></path><path d="M116.04 27.0125C114.582 27.0125 113.387 26.6969 112.455 26.0656C111.524 25.4343 110.96 24.5325 110.764 23.3601L113.38 22.6838C113.485 23.2098 113.658 23.6232 113.898 23.9238C114.154 24.2244 114.462 24.4423 114.823 24.5776C115.198 24.6978 115.604 24.758 116.04 24.758C116.701 24.758 117.19 24.6452 117.506 24.4198C117.821 24.1793 117.979 23.8862 117.979 23.5405C117.979 23.1948 117.829 22.9318 117.528 22.7514C117.228 22.556 116.747 22.3982 116.085 22.278L115.454 22.1652C114.672 22.0149 113.958 21.812 113.312 21.5565C112.666 21.286 112.147 20.9177 111.756 20.4518C111.366 19.9858 111.17 19.3846 111.17 18.6481C111.17 17.5359 111.576 16.6867 112.388 16.1005C113.199 15.4993 114.267 15.1987 115.589 15.1987C116.837 15.1987 117.874 15.4768 118.7 16.0329C119.527 16.589 120.068 17.318 120.324 18.2198L117.686 19.0314C117.566 18.4603 117.318 18.0544 116.942 17.814C116.581 17.5735 116.13 17.4532 115.589 17.4532C115.048 17.4532 114.635 17.5509 114.349 17.7463C114.064 17.9267 113.921 18.1822 113.921 18.5129C113.921 18.8736 114.071 19.1441 114.372 19.3245C114.672 19.4898 115.078 19.6176 115.589 19.7078L116.22 19.8205C117.062 19.9708 117.821 20.1737 118.498 20.4292C119.189 20.6697 119.73 21.0229 120.121 21.4889C120.527 21.9398 120.73 22.556 120.73 23.3376C120.73 24.51 120.301 25.4193 119.444 26.0656C118.603 26.6969 117.468 27.0125 116.04 27.0125Z" fill="#192657"></path><path d="M126.465 26.8771C125.594 26.8771 124.827 26.6817 124.166 26.291C123.52 25.8851 123.016 25.329 122.655 24.6226C122.295 23.9162 122.114 23.1045 122.114 22.1877V15.5142H124.955V21.9622C124.955 22.8039 125.158 23.4352 125.564 23.856C125.984 24.2769 126.578 24.4873 127.345 24.4873C128.216 24.4873 128.893 24.2017 129.374 23.6306C129.855 23.0444 130.095 22.2328 130.095 21.1957V15.5142H132.936V26.6968H130.14V25.2313H129.735C129.554 25.6071 129.216 25.9753 128.72 26.336C128.224 26.6968 127.472 26.8771 126.465 26.8771Z" fill="#192657"></path><path d="M135.083 26.6969V15.5143H137.878V16.7318H138.284C138.479 16.356 138.803 16.0329 139.253 15.7623C139.704 15.4768 140.298 15.334 141.035 15.334C141.831 15.334 142.47 15.4918 142.951 15.8074C143.432 16.108 143.8 16.5063 144.056 17.0023H144.461C144.717 16.5214 145.078 16.1231 145.544 15.8074C146.01 15.4918 146.671 15.334 147.528 15.334C148.219 15.334 148.843 15.4843 149.399 15.7849C149.97 16.0704 150.421 16.5138 150.752 17.1151C151.097 17.7012 151.27 18.4452 151.27 19.3471V26.6969H148.429V19.55C148.429 18.9337 148.272 18.4753 147.956 18.1747C147.64 17.8591 147.197 17.7012 146.626 17.7012C145.98 17.7012 145.476 17.9117 145.115 18.3325C144.77 18.7383 144.597 19.3245 144.597 20.0911V26.6969H141.756V19.55C141.756 18.9337 141.598 18.4753 141.283 18.1747C140.967 17.8591 140.524 17.7012 139.952 17.7012C139.306 17.7012 138.803 17.9117 138.442 18.3325C138.096 18.7383 137.923 19.3245 137.923 20.0911V26.6969H135.083Z" fill="#192657"></path></svg>