<svg xmlns="http://www.w3.org/2000/svg" width="170" height="40" viewBox="0 0 170 40" fill="none"><path d="M51.1758 28.9998H63.1278V25.3998H55.4238V11.8398H51.1758V28.9998Z" fill="#2F234F"></path><path d="M70.2092 26.6C68.5052 26.6 67.6172 25.112 67.6172 22.88C67.6172 20.648 68.5052 19.136 70.2092 19.136C71.9132 19.136 72.8252 20.648 72.8252 22.88C72.8252 25.112 71.9132 26.6 70.2092 26.6ZM70.2332 29.384C74.1932 29.384 76.7852 26.576 76.7852 22.88C76.7852 19.184 74.1932 16.376 70.2332 16.376C66.2972 16.376 63.6572 19.184 63.6572 22.88C63.6572 26.576 66.2972 29.384 70.2332 29.384Z" fill="#2F234F"></path><path d="M83.6395 33.2481C85.4635 33.2481 87.0715 32.8401 88.1515 31.8801C89.1355 30.9921 89.7835 29.6481 89.7835 27.8001V16.7121H86.0395V18.0321H85.9915C85.2715 17.0001 84.1675 16.3521 82.5355 16.3521C79.4875 16.3521 77.3755 18.8961 77.3755 22.4961C77.3755 26.2641 79.9435 28.3281 82.7035 28.3281C84.1915 28.3281 85.1275 27.7281 85.8475 26.9121H85.9435V28.1361C85.9435 29.6241 85.2475 30.4881 83.5915 30.4881C82.2955 30.4881 81.6475 29.9361 81.4315 29.2881H77.6395C78.0235 31.8561 80.2555 33.2481 83.6395 33.2481ZM83.6155 25.4241C82.1515 25.4241 81.1915 24.2241 81.1915 22.3761C81.1915 20.5041 82.1515 19.3041 83.6155 19.3041C85.2475 19.3041 86.1115 20.6961 86.1115 22.3521C86.1115 24.0801 85.3195 25.4241 83.6155 25.4241Z" fill="#2F234F"></path><path d="M97.4817 26.6C95.7777 26.6 94.8897 25.112 94.8897 22.88C94.8897 20.648 95.7777 19.136 97.4817 19.136C99.1857 19.136 100.097 20.648 100.097 22.88C100.097 25.112 99.1857 26.6 97.4817 26.6ZM97.5057 29.384C101.465 29.384 104.057 26.576 104.057 22.88C104.057 19.184 101.465 16.376 97.5057 16.376C93.5697 16.376 90.9297 19.184 90.9297 22.88C90.9297 26.576 93.5697 29.384 97.5057 29.384Z" fill="#2F234F"></path><path d="M105.2 28.9998H109.112V16.7118H105.2V28.9998ZM105.2 15.0078H109.112V11.8398H105.2V15.0078Z" fill="#2F234F"></path><path d="M110.81 33.0561H114.722V27.7281H114.77C115.538 28.7601 116.666 29.3841 118.25 29.3841C121.466 29.3841 123.602 26.8401 123.602 22.8561C123.602 19.1601 121.61 16.3521 118.346 16.3521C116.666 16.3521 115.466 17.0961 114.626 18.2001H114.554V16.7121H110.81V33.0561ZM117.242 26.3601C115.562 26.3601 114.602 24.9921 114.602 23.0001C114.602 21.0081 115.466 19.4961 117.17 19.4961C118.85 19.4961 119.642 20.8881 119.642 23.0001C119.642 25.0881 118.73 26.3601 117.242 26.3601Z" fill="#2F234F"></path><path d="M129.971 29.3841C133.187 29.3841 135.563 27.9921 135.563 25.3041C135.563 22.1601 133.019 21.6081 130.859 21.2481C129.299 20.9601 127.907 20.8401 127.907 19.9761C127.907 19.2081 128.651 18.8481 129.611 18.8481C130.691 18.8481 131.435 19.1841 131.579 20.2881H135.179C134.987 17.8641 133.115 16.3521 129.635 16.3521C126.731 16.3521 124.331 17.6961 124.331 20.2881C124.331 23.1681 126.611 23.7441 128.747 24.1041C130.379 24.3921 131.867 24.5121 131.867 25.6161C131.867 26.4081 131.123 26.8401 129.947 26.8401C128.651 26.8401 127.835 26.2401 127.691 25.0161H123.995C124.115 27.7281 126.371 29.3841 129.971 29.3841Z" fill="#2F234F"></path><path d="M140.877 29.3599C142.581 29.3599 143.661 28.6879 144.549 27.4879H144.621V28.9999H148.365V16.7119H144.453V23.5759C144.453 25.0399 143.637 26.0479 142.293 26.0479C141.045 26.0479 140.445 25.3039 140.445 23.9599V16.7119H136.557V24.7759C136.557 27.5119 138.045 29.3599 140.877 29.3599Z" fill="#2F234F"></path><path d="M150.066 29.0001H153.978V22.1121C153.978 20.6481 154.698 19.6161 155.922 19.6161C157.098 19.6161 157.65 20.3841 157.65 21.7041V29.0001H161.562V22.1121C161.562 20.6481 162.258 19.6161 163.506 19.6161C164.682 19.6161 165.234 20.3841 165.234 21.7041V29.0001H169.146V21.0081C169.146 18.2481 167.754 16.3521 164.97 16.3521C163.386 16.3521 162.066 17.0241 161.106 18.5121H161.058C160.434 17.1921 159.21 16.3521 157.602 16.3521C155.826 16.3521 154.65 17.1921 153.882 18.4641H153.81V16.7121H150.066V29.0001Z" fill="#2F234F"></path><path fill-rule="evenodd" clip-rule="evenodd" d="M20 40C31.0458 40 40 31.0457 40 20C40 8.9543 31.0458 0 20 0C8.95429 0 0 8.9543 0 20C0 31.0457 8.95429 40 20 40ZM23.087 15.4526C24.7918 13.7477 24.7918 10.9836 23.087 9.27866C21.3821 7.57378 18.618 7.57378 16.9131 9.27866C15.2083 10.9836 15.2083 13.7477 16.9131 15.4526L20 18.5395L23.087 15.4526ZM24.5475 23.087C26.2524 24.7919 29.0165 24.7919 30.7214 23.087C32.4262 21.3821 32.4262 18.618 30.7214 16.9131C29.0165 15.2083 26.2524 15.2083 24.5475 16.9131L21.4606 20.0001L24.5475 23.087ZM23.087 30.7214C24.7918 29.0165 24.7918 26.2524 23.087 24.5475L20 21.4606L16.9131 24.5475C15.2083 26.2524 15.2083 29.0165 16.9131 30.7214C18.618 32.4263 21.3821 32.4263 23.087 30.7214ZM9.27863 23.087C7.57379 21.3821 7.57379 18.618 9.27863 16.9131C10.9836 15.2083 13.7477 15.2083 15.4526 16.9131L18.5395 20.0001L15.4526 23.087C13.7477 24.7919 10.9836 24.7919 9.27863 23.087Z" fill="#2F2F2F"></path></svg>